<?xml version="1.0" standalone="no"?><!DOCTYPE svg PUBLIC "-//W3C//DTD SVG 1.1//EN" "http://www.w3.org/Graphics/SVG/1.1/DTD/svg11.dtd"><svg t="1670421620439" class="icon" viewBox="0 0 1638 1024" version="1.1" xmlns="http://www.w3.org/2000/svg" p-id="47558" xmlns:xlink="http://www.w3.org/1999/xlink" width="319.921875" height="200"><path d="M768 716.8h-51.2v-102.4h51.2a256 256 0 0 0 0-512H358.4a256 256 0 0 0 0 512h51.2v102.4H358.4A358.4 358.4 0 0 1 358.4 0h409.6a358.4 358.4 0 0 1 0 716.8z" fill="#54C3F1" p-id="47559"></path><path d="M1280 1024h-409.6a358.4 358.4 0 0 1 0-716.8h51.2v102.4h-51.2a256 256 0 0 0 0 512h409.6a256 256 0 0 0 0-512h-51.2V307.2h51.2a358.4 358.4 0 0 1 0 716.8z" fill="#54C3F1" p-id="47560"></path></svg>